<svg width="207" height="97" viewBox="0 0 207 97" fill="none" xmlns="http://www.w3.org/2000/svg">
<g clip-path="url(#clip0_1370_62336)">
<path d="M42.5402 13.2699C41.9015 12.7521 41.1025 12.4728 40.2802 12.48C39.7372 12.4117 39.1858 12.4662 38.6667 12.6393C38.1475 12.8123 37.6737 13.0996 37.2802 13.48C36.666 14.5055 36.393 15.6994 36.5002 16.89C36.5002 21.8633 36.2369 27.1967 35.7102 32.89C35.1836 38.5833 34.3602 45.4966 33.2402 53.63C32.1202 62.53 31.4536 68.1333 31.2402 70.44C30.2602 65.1066 29.2802 60.59 28.3002 56.89C26.7602 50.5167 25.5869 45.0367 24.7802 40.45C23.9993 36.2101 23.5845 31.9109 23.5402 27.5999V26.0299C23.5402 23.9166 22.2769 22.86 19.7502 22.86C19.3735 22.8742 19.0053 22.9765 18.6753 23.1589C18.3453 23.3413 18.0627 23.5985 17.8502 23.9099C17.3223 24.5229 17.0252 25.3011 17.0102 26.11V28.11C17.0102 29.7166 16.8369 32.6933 16.4902 37.0399C16.2102 40.3266 15.6136 45.9633 14.7002 53.95L14.0702 59.4099L13.0202 68.23C12.9536 68.1633 12.7102 65.75 12.2902 60.99L11.5402 52.5C10.6336 42.5533 9.51357 33.7299 8.18023 26.0299C6.78023 18.7499 5.27357 15.1066 3.66023 15.0999C2.86965 15.1227 2.10254 15.3738 1.45137 15.8227C0.800201 16.2716 0.292766 16.8992 -0.00976562 17.63C0.763568 19.5233 2.60023 30.8133 5.50023 51.5C8.40023 72.1866 9.85357 84.2133 9.86023 87.5799C9.86023 92.9133 11.1569 95.5799 13.7502 95.5799C14.139 95.577 14.5227 95.4918 14.876 95.3297C15.2294 95.1677 15.5444 94.9327 15.8002 94.64C16.3459 94.1146 16.6652 93.3971 16.6902 92.64C16.6902 87.6667 16.9336 82.6266 17.4202 77.5199C17.8402 72.1866 18.2802 67.58 18.7402 63.7C19.2002 59.82 19.8669 54.6933 20.7402 48.32L21.6802 55.14L23.5702 67.43C25.5502 79.33 27.2069 87.2733 28.5402 91.26C29.5869 94.1266 30.4969 95.56 31.2702 95.56C31.7148 95.5932 32.1609 95.5198 32.5714 95.3459C32.9819 95.1719 33.3449 94.9025 33.6302 94.56C34.1939 93.7879 34.4731 92.8445 34.4202 91.89C34.4699 85.873 34.8572 79.8636 35.5802 73.89C36.3536 67.0567 37.2969 60.6666 38.4102 54.7199C39.5302 48.6266 40.4769 42.2033 41.2502 35.45C41.9628 29.576 42.3468 23.6668 42.4002 17.75C43.0068 17.0854 43.3607 16.2288 43.4002 15.3299C43.4287 14.9432 43.3656 14.5551 43.2162 14.1972C43.0668 13.8394 42.8352 13.5217 42.5402 13.2699V13.2699Z" fill="white"/>
<path d="M70.6898 15.4201C70.0418 14.8785 69.2244 14.5812 68.3798 14.5801C67.8898 14.5801 66.4498 14.6501 64.0698 14.7901C58.1898 15.1368 54.0231 15.7301 51.5698 16.5701C49.8898 17.2101 49.0498 17.9401 49.0498 18.7801C49.0386 19.1771 49.1237 19.571 49.2979 19.928C49.472 20.285 49.73 20.5945 50.0498 20.8301C50.7468 21.3539 51.5979 21.6318 52.4698 21.6201L55.4098 21.4101C56.3132 21.2528 57.2246 21.146 58.1398 21.0901C58.8065 22.4901 59.1398 25.7468 59.1398 30.8601C59.1398 32.8601 59.1398 34.6101 59.0298 36.0101C58.9198 37.4101 59.0298 38.2001 59.0298 38.7901C59.0298 39.3801 58.9798 39.7901 58.9798 40.0001C58.9798 42.4535 59.2231 47.9135 59.7098 56.3801C60.1965 64.8468 60.4731 70.3101 60.5398 72.7701L60.3298 78.3401L60.1198 81.0701C59.8398 84.4035 59.6998 87.2368 59.6998 89.5701C59.6578 90.8707 59.9651 92.1587 60.5898 93.3001C60.8095 93.7606 61.1533 94.1506 61.5826 94.4262C62.0119 94.7018 62.5097 94.8521 63.0198 94.8601C65.0198 94.8601 66.0198 93.1434 66.0198 89.7101C66.0198 87.1201 65.8698 83.9701 65.5898 80.2601C65.3098 76.5501 65.1798 73.4701 65.1798 70.8001C65.1798 68.5601 65.0031 64.5334 64.6498 58.7201C64.3698 54.0534 64.2298 50.0301 64.2298 46.6501C64.2298 44.1201 64.2298 41.8501 64.3298 39.8201L64.4398 33.1001C64.4122 28.7837 64.1652 24.4715 63.6998 20.1801H64.7498C65.3846 20.175 66.0191 20.2084 66.6498 20.2801L68.5398 20.3901C69.3624 20.4184 70.1655 20.1364 70.7898 19.6001C71.0853 19.3359 71.319 19.0098 71.4742 18.6451C71.6295 18.2804 71.7026 17.886 71.6883 17.4899C71.6739 17.0938 71.5726 16.7057 71.3914 16.3531C71.2102 16.0006 70.9536 15.6923 70.6398 15.4501L70.6898 15.4201Z" fill="white"/>
<path d="M91.5407 48.4001C90.4941 48.4515 89.4555 48.609 88.4407 48.8701C87.0807 49.1901 86.1507 49.4201 85.6607 49.5601C85.5207 45.1401 85.2407 40.4735 84.8207 35.5601C84.334 29.6668 84.0874 24.9034 84.0807 21.2701C84.0807 20.5001 85.0807 20.1201 87.0207 20.1201H88.5407L89.5407 20.2201C90.2839 20.249 91.0177 20.0464 91.6407 19.6402C91.9148 19.4456 92.1355 19.1851 92.2823 18.8827C92.4291 18.5803 92.4973 18.2458 92.4807 17.9101C92.5431 17.4008 92.4851 16.884 92.3114 16.4011C92.1377 15.9183 91.8532 15.483 91.4807 15.1302C90.4334 14.5147 89.2212 14.2387 88.0107 14.3401C87.1328 14.3175 86.2543 14.3509 85.3807 14.4401C84.4208 14.4676 83.4675 14.6086 82.5407 14.8601C81.7129 15.0336 80.9169 15.3338 80.1807 15.7501C79.436 16.2377 78.8312 16.9111 78.4261 17.7037C78.021 18.4963 77.8296 19.3809 77.8707 20.2701C78.4974 21.2501 79.164 30.6701 79.8707 48.5301C80.5774 66.3901 80.9474 79.3901 80.9807 87.5301C80.9807 92.0234 81.9807 94.2668 83.9807 94.2602C84.8877 94.303 85.7805 94.0231 86.5007 93.4701C86.8223 93.2135 87.08 92.8858 87.2535 92.5127C87.427 92.1397 87.5116 91.7314 87.5007 91.3202C87.5152 90.8608 87.4783 90.4013 87.3907 89.9502L87.5007 89.7401L87.6007 89.3202C87.6007 85.4735 87.2874 79.7668 86.6607 72.2002C85.9607 64.9935 85.6274 59.2868 85.6607 55.0801H86.8107L89.9607 54.7602C90.6494 54.7196 91.326 54.5606 91.9607 54.2901L92.9607 53.8202C93.3791 53.6562 93.736 53.3657 93.9816 52.9893C94.2272 52.6129 94.3492 52.1692 94.3307 51.7201C94.3352 50.8896 94.0366 50.086 93.4907 49.4601C93.2666 49.1479 92.9747 48.8904 92.6371 48.7069C92.2994 48.5233 91.9246 48.4184 91.5407 48.4001V48.4001Z" fill="white"/>
<path d="M105.329 59.8601C105.399 58.1101 105.429 56.1501 105.429 53.9801V53.1401C105.418 50.0125 105.628 46.888 106.059 43.7901C106.457 41.0076 107.161 38.2777 108.159 35.6501C109.009 33.3256 110.213 31.1465 111.729 29.1901C113.278 27.364 115.22 25.9112 117.409 24.9401C119.789 23.8898 122.368 23.3678 124.969 23.4101C125.457 23.4123 125.939 23.5106 126.388 23.6993C126.838 23.8881 127.246 24.1636 127.589 24.5101C128.463 25.4165 129.11 26.5163 129.479 27.7201C130.735 30.8487 131.549 34.137 131.899 37.4901C132.392 42.3901 132.672 45.9601 132.739 48.2001L132.849 55.5501V57.4401C132.779 57.4401 132.739 57.6201 132.739 57.9701V59.8601C132.818 60.5572 132.855 61.2585 132.849 61.9601C132.818 66.5637 132.484 71.1603 131.849 75.7201C131.417 80.5718 130.138 85.3102 128.069 89.7201C127.194 91.5526 125.899 93.1527 124.289 94.3901C122.861 95.507 121.102 96.1189 119.289 96.1301C109.896 96.1301 105.202 86.0468 105.209 65.8801L105.329 59.8601ZM111.419 74.4601C111.659 78.4065 112.471 82.2972 113.829 86.0101C114.282 87.5715 115.113 88.9969 116.249 90.1601C116.696 90.6333 117.234 91.0125 117.83 91.2752C118.425 91.5379 119.068 91.679 119.719 91.6901C121.892 91.6901 123.536 89.0968 124.649 83.9101C125.779 78.8682 126.481 73.74 126.749 68.5801C126.839 67.0701 126.889 65.5801 126.949 64.0301C126.173 64.5108 125.282 64.7745 124.37 64.7937C123.457 64.8129 122.557 64.5868 121.761 64.1391C120.966 63.6914 120.305 63.0385 119.848 62.2484C119.391 61.4584 119.155 60.5601 119.163 59.6475C119.172 58.7348 119.425 57.8411 119.896 57.0597C120.368 56.2783 121.041 55.6377 121.844 55.2048C122.648 54.772 123.553 54.5627 124.465 54.5988C125.377 54.6349 126.262 54.9151 127.029 55.4101C127.029 54.4101 126.949 53.4101 126.859 52.5101L126.649 47.6801V44.8601C126.719 43.9501 126.749 42.8601 126.749 41.5001C126.843 38.6623 126.506 35.8267 125.749 33.0901C124.976 30.3567 123.402 28.9935 121.029 29.0001C119.871 29.0007 118.728 29.2659 117.689 29.7754C116.649 30.2849 115.739 31.0253 115.029 31.9401C113.386 33.8856 112.443 36.3255 112.349 38.8701V40.7601C112.349 43.4268 112.139 47.4534 111.719 52.8401C111.226 57.9468 110.979 62.0801 110.979 65.2401C110.919 67.8134 111.066 70.8835 111.419 74.4501V74.4601Z" fill="white"/>
<path d="M143.188 53.9701V53.1301C143.177 50.0025 143.388 46.8779 143.818 43.7801C144.216 40.9976 144.92 38.2677 145.918 35.6401C146.768 33.3156 147.972 31.1365 149.488 29.1801C151.034 27.3542 152.972 25.9013 155.158 24.9301C157.542 23.882 160.124 23.3602 162.728 23.4001C163.216 23.4023 163.698 23.5006 164.148 23.6893C164.597 23.8781 165.005 24.1536 165.348 24.5001C166.22 25.4083 166.867 26.5075 167.238 27.7101C168.494 30.8387 169.309 34.1269 169.658 37.4801C170.152 42.3801 170.432 45.9501 170.498 48.1901L170.598 55.5401V57.4301C170.538 57.4301 170.498 57.6101 170.498 57.9601V59.8601C170.574 60.5575 170.607 61.2587 170.598 61.9601C170.587 66.5624 170.273 71.159 169.658 75.7201C169.226 80.5718 167.947 85.3102 165.878 89.7201C165.003 91.5526 163.708 93.1527 162.098 94.3901C160.669 95.5063 158.911 96.1181 157.098 96.1301C147.718 96.1301 143.028 86.0468 143.028 65.8801L143.138 59.8801C143.158 58.1001 143.188 56.1401 143.188 53.9701ZM149.188 74.4501C149.428 78.3965 150.24 82.2871 151.598 86.0001C152.047 87.5631 152.879 88.9895 154.018 90.1501C154.464 90.623 154.999 91.0021 155.594 91.2648C156.188 91.5276 156.829 91.6688 157.478 91.6801C159.658 91.6801 161.305 89.0867 162.418 83.9001C163.548 78.8582 164.251 73.7301 164.518 68.5701C164.632 66.6101 164.712 64.6401 164.758 62.6601C164.124 63.5387 163.227 64.1925 162.196 64.5267C161.165 64.8609 160.055 64.8582 159.026 64.5188C157.997 64.1794 157.102 63.5211 156.473 62.6393C155.843 61.7575 155.51 60.6981 155.523 59.6146C155.536 58.5311 155.894 57.4798 156.544 56.6133C157.195 55.7467 158.105 55.11 159.142 54.7952C160.178 54.4805 161.289 54.5042 162.311 54.8629C163.334 55.2216 164.215 55.8966 164.828 56.7901C164.828 55.2501 164.748 53.7901 164.628 52.5001L164.418 47.6701V44.8601C164.488 43.9501 164.518 42.8601 164.518 41.5001C164.612 38.6623 164.275 35.8267 163.518 33.0901C162.745 30.3567 161.172 28.9934 158.798 29.0001C157.64 29.0007 156.498 29.2658 155.458 29.7754C154.418 30.2849 153.508 31.0253 152.798 31.9401C151.155 33.8856 150.212 36.3255 150.118 38.8701V40.7601C150.118 43.4268 149.908 47.4534 149.488 52.8401C148.995 57.9467 148.748 62.0801 148.748 65.2401C148.682 67.8134 148.825 70.8835 149.178 74.4501H149.188Z" fill="white"/>
<path d="M206.05 44.93C204.792 39.7056 202.264 34.8726 198.69 30.86C197.015 28.952 194.975 27.3982 192.69 26.29C190.461 25.2122 188.016 24.6549 185.54 24.6599C184.597 24.6739 183.694 25.0498 183.02 25.7099C182.664 26.0058 182.377 26.3755 182.179 26.7934C181.98 27.2112 181.875 27.6673 181.87 28.13C181.87 29.25 182.043 32.3666 182.39 37.48C182.81 42.17 183.02 45.63 183.02 47.88C183.02 53.9666 182.987 59.4633 182.92 64.37L182.71 80.9599C182.71 90.1399 183.62 94.7266 185.44 94.7199H193C194.711 93.8336 196.329 92.7784 197.83 91.57C200.385 89.3921 202.462 86.7092 203.93 83.69C205.181 80.706 205.993 77.5566 206.34 74.3399C206.66 70.8161 206.801 67.2781 206.76 63.74V57.9599L206.87 55.12C206.94 54.35 206.97 53.5099 206.97 52.5999C206.97 50.0158 206.661 47.4409 206.05 44.93V44.93ZM201.42 66.36C201.287 69.6049 200.903 72.8345 200.27 76.0199C199.969 77.7191 199.531 79.3912 198.96 81.0199C198.468 82.507 197.814 83.9356 197.01 85.2799C196.24 86.4862 195.216 87.51 194.01 88.2799C192.844 89.009 191.495 89.3906 190.12 89.38V86.86C190.12 81.12 189.873 73.3833 189.38 63.6499C188.82 52.6566 188.54 44.9533 188.54 40.54C188.508 36.8864 188.756 33.2358 189.28 29.62C197.453 30.52 201.54 41.54 201.54 62.68C201.54 64.3 201.54 65.52 201.42 66.36Z" fill="white"/>
<path d="M110.86 15.68C113.693 14.4613 116.809 14.0528 119.86 14.5C120.499 14.6562 121.173 14.5618 121.744 14.2363C122.315 13.9109 122.74 13.379 122.93 12.75C123.1 12.1124 123.013 11.4337 122.688 10.8596C122.362 10.2856 121.825 9.86207 121.19 9.68001C116.984 8.94702 112.655 9.46835 108.743 11.179C104.831 12.8897 101.508 15.7141 99.1905 19.3C99.0224 19.5856 98.9122 19.9015 98.8662 20.2298C98.8202 20.558 98.8393 20.892 98.9224 21.2129C99.0055 21.5337 99.151 21.835 99.3506 22.0996C99.5502 22.3642 99.7999 22.5869 100.085 22.755C100.371 22.9231 100.687 23.0333 101.015 23.0793C101.343 23.1253 101.678 23.1061 101.998 23.023C102.319 22.9399 102.62 22.7945 102.885 22.5949C103.15 22.3954 103.372 22.1456 103.54 21.86C105.311 19.1178 107.86 16.9661 110.86 15.68Z" fill="white"/>
<path d="M151.13 0.499984C150.813 0.587313 150.517 0.736115 150.258 0.937911C149.999 1.13971 149.783 1.39053 149.621 1.67607C149.459 1.96161 149.354 2.27628 149.314 2.6021C149.274 2.92791 149.298 3.25851 149.385 3.575C149.472 3.89148 149.621 4.18766 149.823 4.44664C150.025 4.70561 150.276 4.9223 150.561 5.08433C150.847 5.24637 151.161 5.35054 151.487 5.39097C151.813 5.43141 152.143 5.40732 152.46 5.31999C153.162 5.14812 153.878 5.041 154.6 4.99998C155.449 4.94 156.301 4.94 157.15 4.99998C157.875 5.05168 158.594 5.16539 159.3 5.33995C160.177 5.53913 161.039 5.7998 161.88 6.11998C164.783 7.25789 167.307 9.19202 169.16 11.7C169.506 12.2593 170.054 12.6643 170.691 12.8317C171.327 12.9991 172.003 12.9162 172.58 12.6C173.149 12.2622 173.562 11.7142 173.731 11.0743C173.899 10.4344 173.809 9.75404 173.48 9.17998C171.013 5.70418 167.581 3.02887 163.608 1.48588C159.635 -0.0571036 155.296 -0.399889 151.13 0.499984V0.499984Z" fill="white"/>
</g>
<defs>
<clipPath id="clip0_1370_62336">
<rect width="206.99" height="96.09" fill="white"/>
</clipPath>
</defs>
</svg>
